HIERARCHY
ROOT Hips
{
	OFFSET 0.000000 0.000000 0.000000
	CHANNELS 6 Xposition Yposition Zposition Xrotation Yrotation Zrotation
	JOINT LeftUpLeg_virtual
	{
		OFFSET 0.000000 0.000000 0.000000
		CHANNELS 3 Xrotation Yrotation Zrotation
		JOINT LeftUpLeg
		{
			OFFSET 11.394100 -6.187798 -0.413800
			CHANNELS 3 Xrotation Yrotation Zrotation
			JOINT LeftLeg
			{
				OFFSET 0.430247 -32.302673 3.732800
				CHANNELS 3 Xrotation Yrotation Zrotation
				JOINT LeftFoot
				{
					OFFSET -0.430247 -48.264931 -6.423300
					CHANNELS 3 Xrotation Yrotation Zrotation
					JOINT LeftToeBase
					{
						OFFSET 4.230900 -16.068199 23.438400
						CHANNELS 3 Xrotation Yrotation Zrotation
						JOINT LeftToe_End
						{
							OFFSET 4.510700 0.695400 19.974600
							CHANNELS 3 Xrotation Yrotation Zrotation
							End Site
							{
								OFFSET 0 0 0
							}
						}
					}
				}
			}
		}
	}
	JOINT RightUpLeg_virtual
	{
		OFFSET 0.000000 0.000000 0.000000
		CHANNELS 3 Xrotation Yrotation Zrotation
		JOINT RightUpLeg
		{
			OFFSET -11.333700 -6.187798 -0.413800
			CHANNELS 3 Xrotation Yrotation Zrotation
			JOINT RightLeg
			{
				OFFSET -0.430392 -32.302628 3.733000
				CHANNELS 3 Xrotation Yrotation Zrotation
				JOINT RightFoot
				{
					OFFSET 0.430392 -48.264973 -6.423500
					CHANNELS 3 Xrotation Yrotation Zrotation
					JOINT RightToeBase
					{
						OFFSET -4.230900 -16.068199 23.438400
						CHANNELS 3 Xrotation Yrotation Zrotation
						JOINT RightToe_End
						{
							OFFSET -4.510700 0.695400 19.974600
							CHANNELS 3 Xrotation Yrotation Zrotation
							End Site
							{
								OFFSET 0 0 0
							}
						}
					}
				}
			}
		}
	}
	JOINT Spine_virtual
	{
		OFFSET 0.000000 0.000000 0.000000
		CHANNELS 3 Xrotation Yrotation Zrotation
		JOINT Spine
		{
			OFFSET -0.002400 12.777504 0.315300
			CHANNELS 3 Xrotation Yrotation Zrotation
			JOINT Spine1
			{
				OFFSET -0.002067 5.816869 0.032633
				CHANNELS 3 Xrotation Yrotation Zrotation
				JOINT Spine1_split
				{
					OFFSET -0.002067 5.816869 0.032633
					CHANNELS 3 Xrotation Yrotation Zrotation
					JOINT Spine2
					{
						OFFSET -0.002067 5.816869 0.032633
						CHANNELS 3 Xrotation Yrotation Zrotation
						JOINT Neck_virtual
						{
							OFFSET 0.000000 0.000000 0.000000
							CHANNELS 3 Xrotation Yrotation Zrotation
							JOINT Neck
							{
								OFFSET -0.003700 21.199493 -0.826900
								CHANNELS 3 Xrotation Yrotation Zrotation
								JOINT Head
								{
									OFFSET 0.000000 20.442200 4.834800
									CHANNELS 3 Xrotation Yrotation Zrotation
									JOINT HeadTop_End
									{
										OFFSET 0.000000 34.668396 4.968400
										CHANNELS 3 Xrotation Yrotation Zrotation
										End Site
										{
											OFFSET 0 0 0
										}
									}
								}
							}
						}
						JOINT LeftShoulder_virtual
						{
							OFFSET 0.000000 0.000000 0.000000
							CHANNELS 3 Xrotation Yrotation Zrotation
							JOINT LeftShoulder
							{
								OFFSET 3.288150 8.794197 -1.372250
								CHANNELS 3 Xrotation Yrotation Zrotation
								JOINT LeftShoulder_split
								{
									OFFSET 3.288150 8.794197 -1.372250
									CHANNELS 3 Xrotation Yrotation Zrotation
									JOINT LeftArm
									{
										OFFSET 11.953299 -2.279007 -0.146200
										CHANNELS 3 Xrotation Yrotation Zrotation
										JOINT LeftForeArm
										{
											OFFSET 18.448900 0.000000 0.000000
											CHANNELS 3 Xrotation Yrotation Zrotation
											JOINT LeftHand
											{
												OFFSET 29.527798 0.000000 0.000000
												CHANNELS 3 Xrotation Yrotation Zrotation
												End Site
												{
													OFFSET 0 0 0
												}
											}
										}
									}
								}
							}
						}
						JOINT RightShoulder_virtual
						{
							OFFSET 0.000000 0.000000 0.000000
							CHANNELS 3 Xrotation Yrotation Zrotation
							JOINT RightShoulder
							{
								OFFSET -3.249400 8.794197 -1.372250
								CHANNELS 3 Xrotation Yrotation Zrotation
								JOINT RightShoulder_split
								{
									OFFSET -3.249400 8.794197 -1.372250
									CHANNELS 3 Xrotation Yrotation Zrotation
									JOINT RightArm
									{
										OFFSET -11.953299 -2.279007 -0.146200
										CHANNELS 3 Xrotation Yrotation Zrotation
										JOINT RightForeArm
										{
											OFFSET -18.448900 0.000000 0.000000
											CHANNELS 3 Xrotation Yrotation Zrotation
											JOINT RightHand
											{
												OFFSET -29.527802 0.000000 0.000000
												CHANNELS 3 Xrotation Yrotation Zrotation
												End Site
												{
													OFFSET 0 0 0
												}
											}
										}
									}
								}
							}
						}
					}
				}
			}
		}
	}
}
MOTION
Frames: 4
Frame Time: 0.03333333
-0.723923 90.546631 -0.532734 0.000000 0.000000 0.000000 5.555282 -62.975014 6.766746 -36.728792 6.338569 24.705756 39.117532 -4.619759 -6.479299 -7.198261 -0.569142 -7.744461 0.145300 0.970530 0.143342 0.000000 0.000000 0.000000 2.402202 -61.348062 5.317190 -37.604658 -6.860968 -24.701852 46.879362 -0.521952 -6.922317 -11.280315 3.076154 15.810993 1.280337 0.739697 -2.182463 0.000000 0.000000 0.000000 6.093187 -63.954586 6.731486 8.780735 0.860705 0.085571 10.259408 1.138174 -4.992805 0.506663 -1.310173 1.073225 0.000000 0.000000 0.000000 10.819213 0.536600 -3.977024 -17.499247 21.165725 11.259248 7.699466 34.348612 -7.294964 0.000000 0.000000 0.000000 11.169304 1.075772 -4.052747 -4.661634 -14.097950 0.154627 5.182316 -2.244179 -6.579182 -14.268237 9.198638 -25.388851 7.079988 -52.073366 3.312373 0.000000 0.000000 0.000000 11.278093 0.233661 -4.899275 -6.059968 15.252282 9.252908 -0.028713 4.339009 2.194335 -46.392663 -15.543593 32.215280 -146.963118 64.498938 147.860482 0.000000 0.000000 0.000000 
-0.978521 90.520721 -0.138561 0.000000 0.000000 0.000000 5.276450 -63.104002 6.661644 -37.165627 6.266600 24.879524 39.820457 -4.442356 -6.407499 -6.890219 -0.528221 -7.758885 0.441109 1.015141 0.057681 0.000000 0.000000 0.000000 2.717440 -61.454286 5.491374 -37.763088 -6.407577 -24.580821 46.433921 -0.392384 -6.980350 -10.369293 3.353994 17.096117 -0.271546 0.682669 -2.276561 0.000000 0.000000 0.000000 5.975203 -64.257375 6.888135 8.904330 0.748661 0.058706 10.038216 1.001311 -4.965186 -0.050527 -1.624020 0.970426 0.000000 0.000000 0.000000 10.250236 0.475073 -4.087867 -17.720313 20.073125 11.596009 7.672734 33.352060 -6.996817 0.000000 0.000000 0.000000 10.922821 0.922599 -4.042936 -4.782160 -13.803064 -0.248809 5.044867 -1.650700 -6.921416 -12.941788 10.190808 -25.119023 7.188317 -52.186655 3.078951 0.000000 0.000000 0.000000 10.961176 0.141677 -4.928552 -6.056129 14.087806 9.802886 0.221208 4.615753 3.042587 -43.260246 -20.462316 32.756471 -143.568309 64.521457 143.869015 0.000000 0.000000 0.000000 
-1.083340 90.282288 0.139675 0.000000 0.000000 0.000000 5.209789 -62.493881 6.856683 -38.216729 5.718230 24.683667 41.375654 -4.200210 -6.239593 -6.754268 -0.636460 -7.721964 0.913794 1.089502 -0.333120 0.000000 0.000000 0.000000 3.258754 -60.866848 6.008920 -38.063872 -5.759772 -24.629908 46.666540 -0.593580 -7.161270 -9.495731 3.764797 18.393001 -1.816604 0.635897 -2.027823 0.000000 0.000000 0.000000 6.271171 -63.862385 7.561766 9.169981 0.426086 -0.194018 9.570254 0.780832 -5.012520 -0.173621 -2.457915 0.790616 0.000000 0.000000 0.000000 9.441103 0.357237 -4.219228 -18.182875 18.332931 11.031175 5.964191 30.610053 -5.314978 0.000000 0.000000 0.000000 10.339697 0.673731 -4.113115 -4.909127 -13.227310 -1.149492 4.451290 -1.139450 -6.854740 -11.485930 11.544831 -24.685111 5.513035 -53.326415 1.165107 0.000000 0.000000 0.000000 10.277780 -0.000982 -4.949929 -5.819503 12.732783 10.381959 -0.411351 5.337738 4.129763 -39.638142 -25.921604 31.822729 -133.934655 60.919755 133.699642 0.000000 0.000000 0.000000 
-1.057875 89.769135 0.353138 0.000000 0.000000 0.000000 5.343699 -61.312976 7.334401 -39.847795 4.720497 24.024820 43.749496 -3.919432 -5.980916 -6.880104 -0.913374 -7.644915 1.176988 1.153212 -0.784748 0.000000 0.000000 0.000000 3.925897 -59.641335 6.829431 -38.462127 -4.884349 -24.879611 47.530549 -1.209041 -7.516398 -9.497773 4.060373 19.332290 -2.542227 0.619250 -1.565577 0.000000 0.000000 0.000000 6.828492 -62.690167 8.605757 9.542275 -0.015777 -0.588631 8.957763 0.549233 -5.089369 0.154324 -3.068754 0.672886 0.000000 0.000000 0.000000 8.527511 0.250821 -4.347231 -18.915618 16.002230 9.710589 3.039767 26.260938 -2.911572 0.000000 0.000000 0.000000 9.513186 0.413568 -4.213443 -5.025456 -12.354835 -2.394133 3.696975 -1.057346 -6.375908 -10.216334 12.927446 -24.155811 2.516322 -55.251559 -2.014186 0.000000 0.000000 0.000000 9.289114 -0.156523 -4.957137 -5.367038 11.326931 10.901983 -1.573735 5.894850 5.119731 -36.130704 -30.960428 29.788514 -124.073815 54.073081 123.350484 0.000000 0.000000 0.000000 
